<?xml version="1.0"?>
<svg xmlns="http://www.w3.org/2000/svg" xmlns:xlink="http://www.w3.org/1999/xlink" version="1.1" id="Capa_1" x="0px" y="0px" viewBox="0 0 475.068 475.068" style="enable-background:new 0 0 475.068 475.068;" xml:space="preserve" width="512px" height="512px" class=""><g><path d="M332.051,200.107c-13.004-12.991-30.285-20.146-48.66-20.146c-6.255,0-12.391,0.846-18.335,2.486  c1.393-4.318,3.046-8.553,4.965-12.659c0.656-1.406,0.441-3.064-0.553-4.256l-1.574-1.595l-9.409-8.699  c8.601-4.654,20.482-10.078,37.301-11.079c-2.431,11.059,3.673,16.434,5.863,17.961c6.393,4.453,15.595,3.705,21.403-1.746  c6.87-6.438,9.61-15.481,7.151-23.6c-2.518-8.313-9.941-14.26-19.855-15.908c-13.778-2.3-32.721,0.15-51.076,9.189V64.726  c7.747-0.718,13.834-7.248,13.834-15.179V46.42c0-7.934-6.092-14.465-13.842-15.179c0.951-2.565,1.463-5.294,1.463-8.06  C260.726,10.399,250.333,0,237.557,0c-12.782,0-23.182,10.399-23.182,23.181c0,2.765,0.512,5.494,1.463,8.06  c-7.75,0.714-13.841,7.246-13.841,15.179v3.127c0,7.931,6.087,14.461,13.834,15.179v65.332  c-18.353-9.042-37.297-11.491-51.075-9.191c-9.916,1.648-17.339,7.596-19.857,15.908c-2.459,8.119,0.281,17.162,7.148,23.597  c5.844,5.49,15.953,5.83,22.534,0.758c2.111-1.627,7.826-7.098,5.191-16.942c16.572,1.073,28.313,6.439,36.833,11.05l-10.983,10.294  c-0.994,1.191-1.209,2.851-0.552,4.256c1.914,4.095,3.563,8.319,4.954,12.627c-23.699-6.548-49.282,0.012-66.975,17.692  c-12.999,13-20.158,30.281-20.158,48.662c0,18.38,7.159,35.662,20.159,48.662l72.271,72.259v68.721c0,0.682,0.175,1.354,0.507,1.949  l18.224,32.655l0.003-0.002c0.519,0.929,1.399,1.642,2.483,1.924c0.335,0.087,0.673,0.129,1.007,0.129  c1.423,0,2.774-0.763,3.493-2.051l18.224-32.655c0.332-0.596,0.507-1.267,0.507-1.949v-68.699l72.282-72.282  C358.884,270.599,358.884,226.94,332.051,200.107z M260.13,172.528c-2.34,5.862-4.215,11.914-5.576,18.069  c-1.691,7.589-2.609,15.396-2.754,23.236c-0.593,0.029-1.189,0.045-1.787,0.045h-8.467v-34.481  C245.317,177.395,252.014,174.302,260.13,172.528z M237.557,8c8.364,0,15.169,6.81,15.169,15.181c0,2.876-0.791,5.601-2.281,7.988  h-25.789c-1.49-2.388-2.281-5.113-2.281-7.988C222.376,14.81,229.186,8,237.557,8z M209.997,49.547V46.42  c0-3.998,3.252-7.25,7.25-7.25h40.606c3.998,0,7.251,3.252,7.251,7.25v3.127c0,3.998-3.253,7.25-7.251,7.25h-40.606  C213.25,56.798,209.997,53.545,209.997,49.547z M240.599,110.486c-0.76-0.895-1.874-1.411-3.048-1.411  c-1.174,0-2.289,0.516-3.049,1.411l-10.671,12.563V64.798h27.44v58.252L240.599,110.486z M250.74,134.781  c-4.521,2.794-8.951,6.013-13.194,9.703c-4.24-3.689-8.667-6.907-13.185-9.701l13.19-15.53L250.74,134.781z M173.762,135.996  c-1.41,0-2.715,0.742-3.437,1.954c-0.721,1.211-0.751,2.712-0.08,3.952c3.074,5.672,2.88,10.25-0.546,12.891  c-3.483,2.686-9.172,2.568-12.177-0.255c-4.704-4.408-6.56-10.181-4.966-15.444c1.64-5.413,6.565-9.18,13.515-10.336  c17.604-2.935,46.625,3.33,68.741,24.033c1.538,1.439,3.929,1.439,5.467,0c22.126-20.703,51.153-26.971,68.754-24.033  c6.948,1.155,11.874,4.922,13.514,10.336c1.594,5.262-0.263,11.036-4.967,15.445c-3.012,2.825-8.105,3.283-11.356,1.018  c-3.501-2.44-3.942-7.544-1.211-14.003c0.522-1.235,0.392-2.65-0.35-3.768c-0.741-1.118-1.993-1.79-3.334-1.79  c-25.039,0-41.298,9.157-51.013,14.627l-0.563,0.317c-1.115,0.627-1.862,1.75-2.012,3.02c-0.149,1.27,0.318,2.535,1.257,3.403  l8.239,7.617c-9.207,2.17-16.581,5.755-20.45,7.89c-3.698-2.042-10.596-5.412-19.247-7.601l8.551-7.906  c0.939-0.868,1.407-2.133,1.257-3.403c-0.149-1.271-0.897-2.393-2.011-3.02l-0.564-0.317  C215.059,145.152,198.8,135.996,173.762,135.996z M233.546,180.23v33.647h-6.649c-1.21,0-2.409,0.061-3.602,0.158  c-0.133-7.906-1.051-15.781-2.755-23.434c-1.333-6.023-3.154-11.944-5.421-17.682C223.654,175.027,230.456,178.488,233.546,180.23z   M233.546,455.692l-10.224-18.32V317.087c1.18-0.118,2.373-0.18,3.575-0.18h6.649V455.692z M251.769,437.372l-10.224,18.32V316.907  h8.467c0.588,0,1.173-0.02,1.757-0.043V437.372z M326.395,291.774L259.769,358.4v-42.605c7.809-1.795,14.98-5.732,20.786-11.538  c1.563-1.562,1.563-4.095,0-5.657c-1.561-1.563-4.094-1.562-5.656,0c-6.647,6.647-15.486,10.308-24.887,10.308h-23.116  c-11.537,0-22.384,4.493-30.543,12.651l-1.813,1.813c-1.562,1.563-1.562,4.095,0,5.657c0.781,0.781,1.805,1.171,2.829,1.171  c1.024,0,2.047-0.391,2.829-1.171l1.812-1.813c3.817-3.817,8.358-6.643,13.312-8.363v39.525l-66.614-66.604  c-11.488-11.488-17.815-26.761-17.815-43.004s6.327-31.517,17.814-43.004c16.804-16.794,41.661-22.236,63.854-14.145  c0.055,0.239,0.116,0.476,0.169,0.715c1.68,7.545,2.545,15.32,2.585,23.117c-7.099,1.964-13.61,5.725-18.961,11.075l-1.813,1.813  c-1.562,1.563-1.562,4.095,0,5.657c0.781,0.781,1.805,1.171,2.829,1.171c1.024,0,2.047-0.391,2.829-1.171l1.812-1.813  c6.648-6.647,15.486-10.308,24.886-10.308h23.116c11.537,0,22.385-4.493,30.543-12.651c1.563-1.562,1.563-4.095,0-5.657  c-1.561-1.563-4.094-1.562-5.656,0c-4.263,4.263-9.431,7.291-15.067,8.919c0.218-6.803,1.063-13.567,2.531-20.158  c0.051-0.229,0.109-0.456,0.161-0.685c6.677-2.436,13.684-3.685,20.866-3.685c16.239,0,31.513,6.323,43.005,17.804  C350.108,229.478,350.108,268.062,326.395,291.774z" data-original="#000000" class="active-path" data-old_color="#FF9300" fill="#6C3C09"/></g> </svg>
