<svg height="512" viewBox="0 0 64 64" width="512" xmlns="http://www.w3.org/2000/svg"><g id="Filled_outline" data-name="Filled outline"><path d="m23 58c3.124-3.124 4.343-7.657 2-10s-6.876-1.124-10 2-3 11-3 11 7.876.124 11-3z" fill="#4d6b61"/><path d="m9.308 53.499h18.385v2h-18.385z" fill="#8ec13f" transform="matrix(.707 -.707 .707 .707 -33.118 29.044)"/><path d="m13.999 50h8v2h-8z" fill="#8ec13f"/><path d="m18 53.999h2v6h-2z" fill="#8ec13f"/><path d="m58 14c-3.124 3.124-7.657 4.343-10 2s-1.125-6.876 2-10 11-3 11-3 .124 7.876-3 11z" fill="#4d6b61"/><path d="m45.307 8.5h18.385v2h-18.385z" fill="#8ec13f" transform="matrix(.707 -.707 .707 .707 9.245 41.319)"/><path d="m50.999 5h2v7h-2z" fill="#8ec13f"/><path d="m53.999 9h6v2h-6z" fill="#8ec13f"/><path d="m14.999 39h-12l4-5-4-5h12z" fill="#4d6b61"/><path d="m48.999 39h12l-4-5 4-5h-12z" fill="#4d6b61"/><path d="m32 16.912a15.957 15.957 0 0 0 -21 .059 12.6 12.6 0 0 0 0 19l21 19 21-19a12.6 12.6 0 0 0 0-19 15.957 15.957 0 0 0 -21-.059z" fill="#b11e48"/><g fill="#fcf05a"><path d="m14 10a5.006 5.006 0 0 1 -5-5 1 1 0 0 1 2 0 3 3 0 0 0 3 3 1 1 0 1 1 0 2z"/><path d="m14 10a5.006 5.006 0 0 1 -5-5 1 1 0 0 1 2 0 3 3 0 0 0 3 3 1 1 0 1 1 0 2z"/><path d="m6 10a1 1 0 1 1 0-2 3 3 0 0 0 3-3 1 1 0 0 1 2 0 5.006 5.006 0 0 1 -5 5z"/><path d="m10 14a1 1 0 0 1 -1-1 5.006 5.006 0 0 1 5-5 1 1 0 1 1 0 2 3 3 0 0 0 -3 3 1 1 0 0 1 -1 1z"/><path d="m10 14a1 1 0 0 1 -1-1 5.006 5.006 0 0 1 5-5 1 1 0 1 1 0 2 3 3 0 0 0 -3 3 1 1 0 0 1 -1 1z"/><path d="m10 14a1 1 0 0 1 -1-1 3 3 0 0 0 -3-3 1 1 0 1 1 0-2 5.006 5.006 0 0 1 5 5 1 1 0 0 1 -1 1z"/><path d="m51 56a5.006 5.006 0 0 1 -5-5 1 1 0 0 1 2 0 3 3 0 0 0 3 3 1 1 0 0 1 0 2z"/><path d="m51 56a5.006 5.006 0 0 1 -5-5 1 1 0 0 1 2 0 3 3 0 0 0 3 3 1 1 0 0 1 0 2z"/><path d="m43 56a1 1 0 1 1 0-2 3 3 0 0 0 3-3 1 1 0 0 1 2 0 5.006 5.006 0 0 1 -5 5z"/><path d="m47 60a1 1 0 0 1 -1-1 5.006 5.006 0 0 1 5-5 1 1 0 0 1 0 2 3 3 0 0 0 -3 3 1 1 0 0 1 -1 1z"/><path d="m47 60a1 1 0 0 1 -1-1 5.006 5.006 0 0 1 5-5 1 1 0 0 1 0 2 3 3 0 0 0 -3 3 1 1 0 0 1 -1 1z"/><path d="m47 60a1 1 0 0 1 -1-1 3 3 0 0 0 -3-3 1 1 0 1 1 0-2 5.006 5.006 0 0 1 5 5 1 1 0 0 1 -1 1z"/></g><path d="m43.706 39.707-1.414-1.414 7-7c4.758-4.283 1.122-8.447.965-8.622l1.481-1.345a8.41 8.41 0 0 1 2.01 5.611 8.345 8.345 0 0 1 -3.08 5.806z" fill="#f4f4e6"/><path d="m19.999 17h2v2h-2z" fill="#eb8cb3"/><path d="m23.999 20h2v2h-2z" fill="#eb8cb3"/><path d="m12.999 21h2v2h-2z" fill="#eb8cb3"/><path d="m58 36.971c-6 2-16 2.84-29-.16s-20 3-20 3l4 8.16s5-6 18-3 19 2 25 0z" fill="#c8d952"/><path d="m11 5a1 1 0 0 0 -2 0 3 3 0 0 1 -3 3 1 1 0 0 0 0 2 3 3 0 0 1 3 3 1 1 0 0 0 2 0 3 3 0 0 1 3-3 1 1 0 0 0 0-2 3 3 0 0 1 -3-3zm-1 5.031a4.988 4.988 0 0 0 -1.031-1.031 4.988 4.988 0 0 0 1.031-1.031 4.988 4.988 0 0 0 1.031 1.031 4.988 4.988 0 0 0 -1.031 1.031z"/><path d="m51 54a3 3 0 0 1 -3-3 1 1 0 0 0 -2 0 3 3 0 0 1 -3 3 1 1 0 0 0 0 2 3 3 0 0 1 3 3 1 1 0 0 0 2 0 3 3 0 0 1 3-3 1 1 0 0 0 0-2zm-4 2.031a4.988 4.988 0 0 0 -1.031-1.031 4.988 4.988 0 0 0 1.031-1.031 4.988 4.988 0 0 0 1.031 1.031 4.988 4.988 0 0 0 -1.031 1.031z"/><path d="m61.9 28.566a1 1 0 0 0 -.9-.566h-2.771a13.416 13.416 0 0 0 -3.42-10.609 12.838 12.838 0 0 0 3.9-2.684c3.379-3.381 3.296-11.383 3.291-11.723a1 1 0 0 0 -.984-.984c-.338 0-8.341-.09-11.723 3.293a11.488 11.488 0 0 0 -3.477 7.043 17.569 17.569 0 0 0 -3.386-.336 16.48 16.48 0 0 0 -10.43 3.592 16.967 16.967 0 0 0 -21.675.639 13.788 13.788 0 0 0 -4.645 10.239 13.631 13.631 0 0 0 .091 1.53h-2.771a1 1 0 0 0 -.781 1.625l3.501 4.375-3.5 4.375a1 1 0 0 0 .78 1.625h5.028a.952.952 0 0 0 .075.251l4 8.16a1 1 0 0 0 .774.549.852.852 0 0 0 .124.008 1.007 1.007 0 0 0 .763-.352c.119-.14 1.975-2.226 6.288-3.1l.454.41a11.913 11.913 0 0 0 -6.213 3.372c-3.381 3.376-3.293 11.378-3.293 11.718a1 1 0 0 0 .984.984h.164c1.21 0 8.4-.136 11.559-3.294a11.461 11.461 0 0 0 3.453-6.766l4.169 3.771a1 1 0 0 0 1.342 0l8.836-8a34.807 34.807 0 0 0 14.809-1.8.994.994 0 0 0 .654-.706l1.303-5.205h2.727a1 1 0 0 0 .781-1.625l-3.501-4.375 3.5-4.375a1 1 0 0 0 .12-1.059zm-2.581-19.566h-2.905l3.468-3.468a24.925 24.925 0 0 1 -.563 3.468zm-6.319-3.691a20.651 20.651 0 0 1 5.468-1.191l-5.468 5.468zm1.414 5.691h4.277a6.819 6.819 0 0 1 -1.4 2.293 10.582 10.582 0 0 1 -4.088 2.551 15.778 15.778 0 0 0 -2.12-1.515zm-3.707-4.293c.09-.09.192-.174.293-.259v5.138l-1.8 1.8q-.69-.3-1.407-.528a9.248 9.248 0 0 1 2.914-6.151zm-39.033 11a14.886 14.886 0 0 1 19.652-.06 1 1 0 0 0 1.348 0 14.389 14.389 0 0 1 9.756-3.647 14.619 14.619 0 0 1 9.9 3.708 11.607 11.607 0 0 1 0 17.521l-2.582 2.337c-1.24.112-2.612.18-4.1.2l5.018-5.019a8.345 8.345 0 0 0 3.08-5.806 8.41 8.41 0 0 0 -2.01-5.611l-1.481 1.345c.157.175 3.793 4.339-.965 8.622l-6.424 6.423a72.633 72.633 0 0 1 -13.641-1.884c-7.226-1.668-12.644-.658-16.155.656l-1.395-1.261a11.6 11.6 0 0 1 0-17.522zm-6.593 12.293h1.091a13.528 13.528 0 0 0 1.054 2.681zm0 8 2.7-3.375a1 1 0 0 0 .219-.643 14.9 14.9 0 0 0 2.333 2.73l.723.653c-.44.22-.845.437-1.179.635zm17.589 9.879.545.492-1.629 1.629h-5.1c1.992-1.646 4.388-2.481 6.184-2.121zm-4.67 11.439a24.8 24.8 0 0 1 -3.469.564l3.469-3.469zm-4.883-.85a18.009 18.009 0 0 1 1.657-6.468h4.812zm9.175-1.175a6.814 6.814 0 0 1 -2.292 1.398v-4.278l4.7-4.7.336.3c.608 2.035-.511 5.048-2.743 7.28zm9.708-3.672-9.335-8.444a28.033 28.033 0 0 1 8.11.768c3.021.7 5.672 1.18 8.061 1.49zm23.164-9.428c-5.12 1.659-10.987 2.792-23.939-.2-10.225-2.356-15.754.648-17.914 2.339l-3.042-6.206c1.93-1.275 8.315-4.694 18.506-2.341 10.416 2.4 20.423 2.624 27.829.647zm-1.928-7.093.439-.4a14.849 14.849 0 0 0 2.325-2.717.993.993 0 0 0 .216.642l1.188 1.485a31.586 31.586 0 0 1 -4.168.99zm3.539-4.426a13.423 13.423 0 0 0 1.053-2.674h1.091z"/><path d="m20 17h2v2h-2z"/><path d="m24 20h2v2h-2z"/><path d="m13 21h2v2h-2z"/></g></svg>